<svg xmlns="http://www.w3.org/2000/svg" width="232.48" height="35" viewBox="0 0 232.48 35"><rect class="svg__rect" x="0" y="0" width="171.49" height="35" fill="#F72787"/><rect class="svg__rect" x="169.49" y="0" width="62.98999999999998" height="35" fill="#C91F6E"/><path class="svg__text" d="M15.78 22L14.31 22L14.31 13.47L15.78 13.47L15.78 22ZM26.43 19.16L26.43 19.16L26.43 13.47L27.91 13.47L27.91 19.18Q27.91 20.03 28.34 20.48Q28.78 20.93 29.62 20.93L29.62 20.93Q31.33 20.93 31.33 19.13L31.33 19.13L31.33 13.47L32.81 13.47L32.81 19.17Q32.81 20.53 31.94 21.32Q31.07 22.12 29.62 22.12L29.62 22.12Q28.16 22.12 27.30 21.33Q26.43 20.55 26.43 19.16ZM36.95 19.42L36.95 19.42L38.43 19.42Q38.43 20.15 38.91 20.55Q39.39 20.95 40.29 20.95L40.29 20.95Q41.06 20.95 41.45 20.63Q41.84 20.32 41.84 19.80L41.84 19.80Q41.84 19.24 41.44 18.94Q41.05 18.63 40.02 18.32Q38.98 18.01 38.38 17.63L38.38 17.63Q37.21 16.90 37.21 15.72L37.21 15.72Q37.21 14.69 38.05 14.02Q38.89 13.35 40.23 13.35L40.23 13.35Q41.12 13.35 41.82 13.68Q42.52 14.01 42.92 14.61Q43.31 15.22 43.31 15.96L43.31 15.96L41.84 15.96Q41.84 15.29 41.42 14.91Q41.00 14.54 40.22 14.54L40.22 14.54Q39.49 14.54 39.09 14.85Q38.69 15.16 38.69 15.71L38.69 15.71Q38.69 16.18 39.13 16.50Q39.56 16.81 40.56 17.10Q41.55 17.40 42.15 17.78Q42.76 18.16 43.04 18.65Q43.32 19.13 43.32 19.79L43.32 19.79Q43.32 20.86 42.50 21.49Q41.69 22.12 40.29 22.12L40.29 22.12Q39.36 22.12 38.58 21.77Q37.81 21.43 37.38 20.83Q36.95 20.22 36.95 19.42ZM53.19 22L47.61 22L47.61 13.47L53.15 13.47L53.15 14.66L49.09 14.66L49.09 17.02L52.60 17.02L52.60 18.19L49.09 18.19L49.09 20.82L53.19 20.82L53.19 22ZM64.14 22L62.60 22L65.82 13.47L67.15 13.47L70.38 22L68.83 22L68.14 20.01L64.83 20.01L64.14 22ZM66.48 15.28L65.25 18.82L67.72 18.82L66.48 15.28ZM75.82 22L74.33 22L74.33 13.47L77.33 13.47Q78.81 13.47 79.61 14.13Q80.42 14.79 80.42 16.05L80.42 16.05Q80.42 16.90 80.00 17.48Q79.59 18.06 78.85 18.37L78.85 18.37L80.77 21.92L80.77 22L79.18 22L77.47 18.71L75.82 18.71L75.82 22ZM75.82 14.66L75.82 17.52L77.34 17.52Q78.09 17.52 78.51 17.15Q78.93 16.77 78.93 16.11L78.93 16.11Q78.93 15.43 78.54 15.05Q78.15 14.68 77.38 14.66L77.38 14.66L75.82 14.66ZM84.54 18.19L84.54 18.19L84.54 17.39Q84.54 16.19 84.97 15.27Q85.40 14.35 86.20 13.85Q87.00 13.35 88.05 13.35L88.05 13.35Q89.46 13.35 90.32 14.12Q91.18 14.89 91.32 16.29L91.32 16.29L89.84 16.29Q89.74 15.37 89.31 14.96Q88.88 14.55 88.05 14.55L88.05 14.55Q87.08 14.55 86.56 15.26Q86.04 15.96 86.03 17.33L86.03 17.33L86.03 18.09Q86.03 19.47 86.52 20.20Q87.02 20.92 87.97 20.92L87.97 20.92Q88.85 20.92 89.29 20.53Q89.73 20.14 89.84 19.22L89.84 19.22L91.32 19.22Q91.19 20.59 90.31 21.35Q89.43 22.12 87.97 22.12L87.97 22.12Q86.96 22.12 86.18 21.63Q85.40 21.15 84.98 20.26Q84.56 19.37 84.54 18.19ZM97.12 22L95.63 22L95.63 13.47L97.12 13.47L97.12 17.02L100.93 17.02L100.93 13.47L102.41 13.47L102.41 22L100.93 22L100.93 18.21L97.12 18.21L97.12 22ZM118.48 22L113.12 22L113.12 13.47L114.61 13.47L114.61 20.82L118.48 20.82L118.48 22ZM124.17 22L122.69 22L122.69 13.47L124.17 13.47L124.17 22ZM130.46 22L128.98 22L128.98 13.47L130.46 13.47L134.28 19.54L134.28 13.47L135.75 13.47L135.75 22L134.26 22L130.46 15.95L130.46 22ZM140.35 19.16L140.35 19.16L140.35 13.47L141.83 13.47L141.83 19.18Q141.83 20.03 142.26 20.48Q142.70 20.93 143.54 20.93L143.54 20.93Q145.25 20.93 145.25 19.13L145.25 19.13L145.25 13.47L146.73 13.47L146.73 19.17Q146.73 20.53 145.86 21.32Q144.99 22.12 143.54 22.12L143.54 22.12Q142.07 22.12 141.21 21.33Q140.35 20.55 140.35 19.16ZM152.39 22L150.67 22L153.31 17.70L150.73 13.47L152.44 13.47L154.23 16.55L156.03 13.47L157.74 13.47L155.16 17.70L157.80 22L156.07 22L154.23 18.87L152.39 22Z" fill="#FFFFFF"/><path class="svg__text" d="M188.22 22L183.68 22L183.68 13.60L187.98 13.60Q189.58 13.60 190.42 14.19Q191.27 14.79 191.27 15.79L191.27 15.79Q191.27 16.39 190.97 16.87Q190.67 17.34 190.13 17.62L190.13 17.62Q190.86 17.87 191.26 18.41Q191.67 18.94 191.67 19.70L191.67 19.70Q191.67 20.80 190.78 21.40Q189.89 22 188.22 22L188.22 22ZM186.03 18.58L186.03 20.28L188.03 20.28Q189.27 20.28 189.27 19.43L189.27 19.43Q189.27 18.58 188.03 18.58L188.03 18.58L186.03 18.58ZM186.03 15.31L186.03 16.94L187.66 16.94Q188.86 16.94 188.86 16.12L188.86 16.12Q188.86 15.31 187.66 15.31L187.66 15.31L186.03 15.31ZM198.18 15.48L195.60 15.48L195.60 13.60L203.12 13.60L203.12 15.48L200.55 15.48L200.55 22L198.18 22L198.18 15.48ZM209.57 22L206.85 13.60L209.30 13.60L210.98 18.96L212.76 13.60L214.94 13.60L216.64 19.01L218.40 13.60L220.67 13.60L217.94 22L215.40 22L213.80 16.89L212.11 22L209.57 22Z" fill="#FFFFFF" x="182.49"/></svg>